<?xml version="1.0" encoding="utf-8"?>
<!-- Generator: Adobe Illustrator 16.0.0, SVG Export Plug-In . SVG Version: 6.00 Build 0)  -->
<!DOCTYPE svg PUBLIC "-//W3C//DTD SVG 1.1//EN" "http://www.w3.org/Graphics/SVG/1.1/DTD/svg11.dtd">
<svg version="1.1" id="Layer_1" xmlns="http://www.w3.org/2000/svg" xmlns:xlink="http://www.w3.org/1999/xlink" x="0px" y="0px"
	 width="1054.8px" height="567.834px" viewBox="0 0 1054.8 567.834" enable-background="new 0 0 1054.8 567.834"
	 xml:space="preserve">
<g>
	<g>
		<path fill="none" d="M164.477,529.514l-20.68-226.957c-0.029-0.155-0.029-0.242-0.029-0.242"/>
		<path fill="#FFFFFF" d="M169.973,528.817l-5.496,0.696l-1.944,0.243l-3.553,0.427c-1.913-17.461-3.674-35.771-5.436-54.055
			c-1.852-21.681-3.734-43.332-5.071-63.678c-1.274-17.491-1.973-34.011-2.764-48.679c0.031-0.028,0-0.028,0-0.06
			c-0.12-2.368-0.273-4.677-0.394-6.953c-0.942-16.277-1.002-29.94-1.365-39.447c-0.122-9.533-0.183-14.998-0.183-14.998
			s0,0.087,0.029,0.242c0.214,1.15,1.094,6.316,2.491,14.542c1.336,9.445,3.735,22.867,5.77,39.054
			c2.003,16.185,4.737,35.042,6.984,55.326c2.337,20.254,4.433,41.907,6.528,63.56C167.118,493.225,168.698,511.385,169.973,528.817
			z"/>
	</g>
	<g>
		<line fill="#FDFEFF" x1="159.524" y1="488.175" x2="253.392" y2="398.819"/>
		<polygon fill="#FFFFFF" points="153.279,481.618 253.392,398.819 165.771,494.73 		"/>
	</g>
	<g>
		<line fill="#FDFEFF" x1="155.229" y1="428.36" x2="212.232" y2="362.946"/>
		<polygon fill="#FFFFFF" points="150.676,424.396 212.232,362.946 159.784,432.329 		"/>
	</g>
	<g>
		<line fill="#FDFEFF" x1="153.887" y1="417.628" x2="93.029" y2="371.549"/>
		<polygon fill="#FFFFFF" points="150.24,422.442 93.029,371.549 157.528,412.815 		"/>
	</g>
	<g>
		<line fill="#FDFEFF" x1="149.38" y1="360.844" x2="176.522" y2="325.729"/>
		<polygon fill="#FFFFFF" points="146.991,358.99 176.522,325.729 151.771,362.694 		"/>
	</g>
	<g>
		<line fill="#FDFEFF" x1="158.981" y1="485.582" x2="58.711" y2="420.6"/>
		<polygon fill="#FFFFFF" points="154.056,493.187 58.711,420.6 163.906,477.967 		"/>
	</g>
	<g>
		<line fill="#FDFEFF" x1="148.505" y1="354.307" x2="117.742" y2="329.577"/>
		<polygon fill="#FFFFFF" points="146.613,356.664 117.742,329.577 150.404,351.947 		"/>
	</g>
	<g>
		<polygon fill="#FFCD34" points="288.702,346.715 138.973,261.62 137.797,89.409 286.354,2.313 436.063,87.417 437.197,259.61 		
			"/>
	</g>
	<g>
		<polygon fill="#4BB649" points="1,382.738 139.163,262.397 288.027,347.118 241.961,519.849 64.571,541.837 		"/>
	</g>
	<g>
		<path fill="none" d="M157.067,530.424L135.628,295.39c-0.029-0.183-0.029-0.276-0.029-0.276"/>
		<path fill="#FFFFFF" d="M162.533,529.757l-3.553,0.427l-1.913,0.24l-5.496,0.67c-2.004-18.281-3.826-37.441-5.679-56.635
			c-1.913-22.348-3.856-44.698-5.253-65.711c-1.548-20.985-2.338-40.63-3.339-57.453c-0.973-16.825-1.063-30.887-1.489-40.694
			c-0.122-9.867-0.212-15.487-0.212-15.487s0,0.094,0.029,0.276c0.212,1.182,1.093,6.497,2.521,15.001
			c1.397,9.715,3.825,23.595,5.922,40.295c0.516,4.162,1.062,8.532,1.638,13.027c0,0.031,0.031,0.031,0,0.06
			c1.762,13.484,3.766,28.332,5.468,44.002c2.428,20.921,4.554,43.243,6.74,65.594C159.556,492.437,161.197,511.508,162.533,529.757
			z"/>
	</g>
	<g>
		<line fill="#FDFEFF" x1="152.89" y1="489.24" x2="252.541" y2="390.037"/>
		<polygon fill="#FFFFFF" points="146.501,482.813 252.541,390.037 159.283,495.656 		"/>
	</g>
	<g>
		<line fill="#FDFEFF" x1="147.813" y1="419.886" x2="208.458" y2="350.271"/>
		<polygon fill="#FFFFFF" points="143.261,415.921 208.458,350.271 152.367,423.851 		"/>
	</g>
	<g>
		<line fill="#FDFEFF" x1="146.054" y1="414.12" x2="83.47" y2="366.724"/>
		<polygon fill="#FFFFFF" points="142.409,418.945 83.47,366.724 149.698,409.313 		"/>
	</g>
	<g>
		<line fill="#FDFEFF" x1="141.395" y1="352.097" x2="169.41" y2="315.865"/>
		<polygon fill="#FFFFFF" points="139.003,350.238 169.41,315.865 143.784,353.939 		"/>
	</g>
	<g>
		<line fill="#FDFEFF" x1="152.82" y1="484.99" x2="40.09" y2="406.004"/>
		<polygon fill="#FFFFFF" points="147.625,492.413 40.09,406.004 158.016,477.569 		"/>
	</g>
	<g>
		<line fill="#FDFEFF" x1="140.498" y1="348.775" x2="108.752" y2="323.243"/>
		<polygon fill="#FFFFFF" points="138.603,351.122 108.752,323.243 142.389,346.428 		"/>
	</g>
	<g>
		<path fill-rule="evenodd" clip-rule="evenodd" fill="#FDFEFF" d="M253.817,190.966c-11.812-19.935-6.205-42.964,13.262-54.5
			c19.674-11.657,43.318-6.136,54.888,12.811c12.005,19.655,5.91,44.284-13.79,55.691
			C288.211,216.551,265.482,210.73,253.817,190.966z"/>
		<path fill-rule="evenodd" clip-rule="evenodd" fill="#FDFEFF" d="M256.742,123.987c-4.905,2.947-10.462,1.8-13.379-2.788
			c-3.077-4.763-1.766-10.96,2.938-13.884c5.037-3.135,11.208-1.64,14.158,3.445C263.136,115.487,261.544,121.021,256.742,123.987z"
			/>
		<path fill-rule="evenodd" clip-rule="evenodd" fill="#FDFEFF" d="M345.832,178.979c-2.878-4.763-1.391-11.156,3.176-13.826
			c4.752-2.793,10.828-1.274,13.728,3.47c3.009,4.953,1.614,10.747-3.278,13.736C354.61,185.283,348.711,183.819,345.832,178.979z"
			/>
		<path fill-rule="evenodd" clip-rule="evenodd" fill="#FDFEFF" d="M226.645,169.97c2.845,4.964,1.208,10.972-3.664,13.706
			c-4.852,2.737-10.864,0.932-13.639-4.057c-2.654-4.815-1.073-10.571,3.644-13.365C217.87,163.386,223.864,164.982,226.645,169.97z
			"/>
		<path fill-rule="evenodd" clip-rule="evenodd" fill="#FDFEFF" d="M314.887,106.349c4.885-2.723,10.94-0.919,13.667,4.024
			c2.59,4.718,0.952,10.806-3.566,13.448c-5.015,2.947-10.992,1.13-13.9-4.234C308.484,114.759,310.145,109.002,314.887,106.349z"/>
		<path fill-rule="evenodd" clip-rule="evenodd" fill="#FDFEFF" d="M261.203,228.788c2.785,4.797,1.26,10.571-3.437,13.354
			c-4.951,2.938-10.921,1.429-13.749-3.47c-2.929-4.998-1.408-10.815,3.548-13.739C252.354,222.095,258.325,223.8,261.203,228.788z"
			/>
		<path fill-rule="evenodd" clip-rule="evenodd" fill="#FDFEFF" d="M311.633,238.428c-3.047-5.134-1.651-10.536,3.46-13.525
			c4.996-2.925,10.674-1.412,13.539,3.617c2.726,4.754,1.296,10.377-3.425,13.277C320.249,244.866,314.626,243.499,311.633,238.428z
			"/>
		<path fill-rule="evenodd" clip-rule="evenodd" fill="#FDFEFF" d="M217.225,214.725c2.405,4.115,0.989,9.78-2.998,11.975
			c-3.859,2.142-9.262,0.682-11.634-3.138c-2.498-4.128-1.13-9.27,3.223-11.751C210.05,209.381,214.768,210.603,217.225,214.725z"/>
		<path fill-rule="evenodd" clip-rule="evenodd" fill="#FDFEFF" d="M366.146,137.219c-4.224,2.082-9.13,0.463-11.304-3.728
			c-2.228-4.351-0.542-9.587,3.776-11.681c4.284-2.05,9.601-0.16,11.56,4.202C372.101,130.19,370.3,135.194,366.146,137.219z"/>
		<path fill-rule="evenodd" clip-rule="evenodd" fill="#FDFEFF" d="M370.169,213.509c2.549,4.223,1.439,9.01-2.641,11.518
			c-4.156,2.613-9.561,1.272-11.964-2.953c-2.244-3.974-0.827-9.317,3.068-11.627C362.642,208.109,367.727,209.449,370.169,213.509z
			"/>
		<path fill-rule="evenodd" clip-rule="evenodd" fill="#FDFEFF" d="M278.321,90.139c-2.48-4.413-1.347-8.834,2.922-11.382
			c4.199-2.514,9.452-1.076,11.822,3.253c2.146,4.036,0.647,9.368-3.316,11.539C285.668,95.768,280.69,94.267,278.321,90.139z"/>
		<path fill-rule="evenodd" clip-rule="evenodd" fill="#FDFEFF" d="M216.599,126.342c2.354,3.896,1.131,9.229-2.785,11.681
			c-4.072,2.583-8.92,1.485-11.527-2.642c-2.76-4.365-1.652-9.508,2.641-11.999C208.8,121.132,214.251,122.499,216.599,126.342z"/>
		<path fill-rule="evenodd" clip-rule="evenodd" fill="#FDFEFF" d="M294.03,258.596c2.407,4.288,1.17,9.12-2.98,11.488
			c-4.087,2.341-9.194,1.032-11.577-3.02c-2.453-4.206-1.026-9.67,3.161-11.962C286.744,252.914,291.686,254.421,294.03,258.596z"/>
		<path fill-rule="evenodd" clip-rule="evenodd" fill="#FDFEFF" d="M183.554,171.82c1.961,3.368,0.673,7.752-2.779,9.627
			c-3.297,1.806-7.424,0.675-9.325-2.546c-2.052-3.425-0.942-7.734,2.479-9.75C177.348,167.138,181.55,168.295,183.554,171.82z"/>
		<path fill-rule="evenodd" clip-rule="evenodd" fill="#FDFEFF" d="M345.916,76.278c2.063,3.585,0.918,7.598-2.645,9.603
			c-3.526,1.957-7.961,0.765-9.622-2.772c-1.691-3.716-0.949-7.008,2.555-9.333C339.447,71.652,344.027,72.892,345.916,76.278z"/>
		<path fill-rule="evenodd" clip-rule="evenodd" fill="#FDFEFF" d="M237.102,77.305c1.958,3.481,0.731,7.787-2.725,9.602
			c-3.249,1.724-7.422,0.487-9.312-2.701c-2.003-3.525-0.906-7.692,2.527-9.673C231.176,72.512,235.047,73.646,237.102,77.305z"/>
		<path fill-rule="evenodd" clip-rule="evenodd" fill="#FDFEFF" d="M336.971,262.31c3.304-1.97,7.743-0.838,9.701,2.68
			c2.016,3.677,1.238,6.892-2.23,9.304c-3.414,2.333-7.572,1.313-9.664-2.157C332.678,268.684,333.658,264.305,336.971,262.31z"/>
		<path fill-rule="evenodd" clip-rule="evenodd" fill="#FDFEFF" d="M400.828,169.635c2.085,3.307,1.075,7.789-2.196,9.783
			c-3.541,2.134-7.585,1.212-9.682-2.326c-2.116-3.676-1.298-6.896,1.992-9.35C394.045,165.441,398.799,166.477,400.828,169.635z"/>
		<path fill-rule="evenodd" clip-rule="evenodd" fill="#FDFEFF" d="M238.397,265.062c2.137,3.35,1.205,7.668-2.085,9.815
			c-3.316,2.126-7.833,1.169-9.77-2.313c-2.016-3.608-1.346-6.909,2.041-9.387C231.792,260.829,236.333,261.781,238.397,265.062z"/>
		<path fill-rule="evenodd" clip-rule="evenodd" fill="#FDFEFF" d="M287.603,60.615c-2.371-1.068-5.347-1.513-6.854-3.274
			c-2.195-2.532-1.098-5.682,1.747-7.39c2.83-1.726,6.156-1.279,7.407,1.885c0.837,2.1-0.141,5-0.306,7.545
			C288.921,59.802,288.276,60.188,287.603,60.615z"/>
		<path fill-rule="evenodd" clip-rule="evenodd" fill="#FDFEFF" d="M284.738,288.091c2.333,0.975,5.283,1.412,6.818,3.09
			c2.179,2.432,1.377,5.641-1.431,7.431c-2.865,1.843-6.311,1.578-7.714-1.766c-0.884-2.088,0.119-4.971,0.282-7.483
			C283.366,288.938,284.063,288.516,284.738,288.091z"/>
		<path fill-rule="evenodd" clip-rule="evenodd" fill="#FDFEFF" d="M384.232,235.358c1.167-2.254,1.804-5.12,3.583-6.583
			c2.681-2.172,5.708-0.896,7.317,1.933c1.731,2.938,0.861,6.187-2.196,7.295c-2.122,0.825-4.982-0.272-7.503-0.524
			C385.044,236.776,384.608,236.053,384.232,235.358z"/>
		<path fill-rule="evenodd" clip-rule="evenodd" fill="#FDFEFF" d="M178.707,111.103c3.893-2.156,7.055-1.356,7.928,1.699
			c0.613,2.123-1.177,4.993-1.901,7.502c-2.537-0.753-5.885-0.782-7.385-2.479C175.228,115.423,176.32,112.397,178.707,111.103z"/>
		<path fill-rule="evenodd" clip-rule="evenodd" fill="#FDFEFF" d="M187.814,231.153c1.315,4.615,0.495,7.284-2.478,8.783
			c-2.882,1.46-5.854,0.817-7.36-2.313c-1.393-2.929-0.911-6.163,2.382-7.158C182.577,229.742,185.313,230.851,187.814,231.153z"/>
		<path fill-rule="evenodd" clip-rule="evenodd" fill="#FDFEFF" d="M392.722,117.872c-3.939,2.159-6.271,1.275-7.963-1.791
			c-1.788-3.197-0.611-6.322,2.21-7.183c2.051-0.64,5.828,0.54,7.239,2.23C396.11,113.498,395.179,116.645,392.722,117.872z"/>
	</g>
	<g>
		<polygon fill="#B72325" points="600.783,352.963 600.753,353.022 564.556,353.022 437.228,279.325 302.522,357.976 
			260.13,517.488 250.354,518.764 241.183,519.979 240.665,519.858 286.884,345.979 287.006,346.01 286.975,345.979 
			437.076,258.341 437.107,258.399 437.169,258.312 		"/>
	</g>
	<path fill="#010101" d="M443.258,389.389v-2.482c2.243-0.581,3.869-1.1,4.887-1.53c1.008-0.451,1.516-0.872,1.516-1.322v-23.288
		c0-1.909-0.116-3.455-0.325-4.647c-0.225-1.201-0.57-2.137-1.03-2.854c-0.468-0.709-1.074-1.178-1.808-1.439
		c-0.723-0.267-1.59-0.4-2.577-0.4c-2.053,0-4.343,0.926-6.848,2.75c-2.509,1.838-5.08,4.564-7.724,8.176v21.704
		c0,0.474,0.566,0.97,1.698,1.468c1.133,0.493,2.713,0.96,4.742,1.385v2.482h-21.248v-2.482c2.057-0.519,3.64-0.996,4.743-1.409
		c1.101-0.424,1.655-0.904,1.655-1.443v-54.805c0-1.319-0.062-2.334-0.167-3.069c-0.102-0.73-0.366-1.297-0.791-1.697
		c-0.423-0.402-1.062-0.698-1.911-0.871c-0.859-0.169-2.039-0.355-3.529-0.537v-2.328c1.467-0.248,2.773-0.51,3.942-0.744
		c1.167-0.264,2.267-0.522,3.27-0.827c1.012-0.296,1.983-0.613,2.902-0.958c0.918-0.343,1.879-0.743,2.867-1.216l1.828,1.675v37.235
		c1.486-1.818,3.067-3.422,4.707-4.84c1.652-1.415,3.292-2.609,4.906-3.573c1.616-0.949,3.187-1.688,4.697-2.195
		c1.51-0.494,2.863-0.743,4.083-0.743c1.342,0,2.626,0.211,3.875,0.622c1.24,0.431,2.334,1.077,3.295,1.946
		c0.944,0.881,1.711,1.979,2.292,3.329c0.575,1.367,0.86,2.996,0.86,4.885v28.712c0,0.229,0.104,0.436,0.331,0.638
		c0.209,0.216,0.575,0.418,1.065,0.637c0.504,0.211,1.16,0.445,1.986,0.718c0.822,0.279,1.853,0.561,3.057,0.86v2.482H443.258z"/>
	<path fill="#010101" d="M507.136,363.473c-0.551,0.62-1.376,1.237-2.474,1.849c-1.087,0.604-2.128,1.108-3.128,1.509h-23.722
		c0.034,2.361,0.367,4.605,0.976,6.702c0.625,2.099,1.5,3.944,2.621,5.482c1.122,1.556,2.487,2.795,4.079,3.724
		c1.603,0.922,3.425,1.365,5.451,1.365c0.961,0,1.901-0.05,2.82-0.178c0.922-0.127,1.911-0.4,2.974-0.814
		c1.046-0.422,2.239-1.032,3.538-1.848c1.309-0.816,2.855-1.908,4.623-3.269c0.417,0.207,0.801,0.584,1.168,1.121
		c0.376,0.53,0.639,0.916,0.799,1.168c-2.119,2.236-3.987,4.042-5.599,5.424c-1.629,1.37-3.163,2.427-4.598,3.183
		c-1.453,0.766-2.896,1.277-4.308,1.523c-1.419,0.25-2.964,0.38-4.64,0.38c-2.495,0-4.857-0.528-7.077-1.575
		c-2.232-1.031-4.178-2.506-5.862-4.409c-1.686-1.901-3.022-4.188-4.01-6.855c-1.006-2.689-1.5-5.67-1.5-8.972
		c0-2.082,0.228-4.13,0.671-6.121c0.461-2,1.11-3.857,1.972-5.61c0.85-1.737,1.903-3.35,3.151-4.845
		c1.238-1.498,2.681-2.795,4.293-3.927c0.745-0.519,1.567-1.032,2.477-1.488c0.896-0.475,1.843-0.884,2.819-1.248
		c0.982-0.357,1.982-0.641,3.022-0.852c1.021-0.225,2.006-0.332,2.935-0.332c2.016,0,3.846,0.264,5.463,0.795
		c1.616,0.527,3.043,1.257,4.269,2.164c1.239,0.922,2.28,1.993,3.14,3.251c0.849,1.248,1.545,2.567,2.097,3.961
		c0.55,1.418,0.934,2.853,1.193,4.354C507.022,360.582,507.136,362.038,507.136,363.473z M489.162,349.693
		c-1.557,0-2.965,0.311-4.224,0.904c-1.26,0.615-2.362,1.468-3.29,2.576c-0.933,1.108-1.714,2.427-2.312,3.986
		c-0.605,1.559-1.04,3.28-1.292,5.145h18.499c0.706,0,1.191-0.118,1.417-0.355c0.234-0.241,0.356-0.677,0.356-1.319
		c0-0.879-0.122-1.934-0.376-3.186c-0.25-1.246-0.711-2.447-1.374-3.585c-0.667-1.159-1.603-2.139-2.781-2.951
		C492.604,350.102,491.056,349.693,489.162,349.693z"/>
	<text transform="matrix(1 0 0 1 291.9692 512.0166)" fill="#010101" font-family="'GentiumBookBasic'" font-size="163.1416">Promistery</text>
	<polygon fill-rule="evenodd" clip-rule="evenodd" points="413.786,333.893 413.786,340.876 396.659,340.876 396.659,390.406 
		387.792,390.406 387.792,340.938 370.542,340.938 370.542,334.014 387.702,334.014 387.702,319.134 396.598,319.134 
		396.598,333.893 	"/>
	<circle fill-rule="evenodd" clip-rule="evenodd" fill="#FDFEFF" cx="285.391" cy="54.343" r="6.491"/>
	<circle fill-rule="evenodd" clip-rule="evenodd" fill="#FDFEFF" cx="182.145" cy="115.583" r="6.49"/>
	<circle fill-rule="evenodd" clip-rule="evenodd" fill="#FDFEFF" cx="183.158" cy="235.023" r="6.491"/>
	<circle fill-rule="evenodd" clip-rule="evenodd" fill="#FDFEFF" cx="389.65" cy="113.558" r="6.491"/>
	<circle fill-rule="evenodd" clip-rule="evenodd" fill="#FDFEFF" cx="390.661" cy="233.505" r="6.491"/>
	<path fill-rule="evenodd" clip-rule="evenodd" fill="#FDFEFF" d="M293.4,293.731c0,3.588-2.906,6.494-6.491,6.494
		c-3.584,0-6.49-2.906-6.49-6.494c0-3.583,2.905-6.489,6.49-6.489C290.495,287.242,293.4,290.148,293.4,293.731z"/>
</g>
</svg>
