<?xml version="1.0" encoding="utf-8"?>
<!-- Generator: Adobe Illustrator 16.0.0, SVG Export Plug-In . SVG Version: 6.00 Build 0)  -->
<!DOCTYPE svg PUBLIC "-//W3C//DTD SVG 1.1//EN" "http://www.w3.org/Graphics/SVG/1.1/DTD/svg11.dtd">
<svg version="1.1" id="Layer_1" xmlns="http://www.w3.org/2000/svg" xmlns:xlink="http://www.w3.org/1999/xlink" x="0px" y="0px"
	 width="360px" height="216px" viewBox="0 0 360 216" enable-background="new 0 0 360 216" xml:space="preserve">
<g>
	<g>
		<path fill="none" d="M58.44,186.22l-6.81-74.739c-0.01-0.051-0.01-0.08-0.01-0.08"/>
		<path fill="#FFFFFF" d="M60.25,185.99l-1.81,0.229l-0.64,0.08l-1.17,0.141c-0.63-5.75-1.21-11.78-1.79-17.801
			c-0.61-7.14-1.23-14.27-1.67-20.97c-0.42-5.76-0.65-11.2-0.91-16.03c0.01-0.01,0-0.01,0-0.02c-0.04-0.78-0.09-1.54-0.13-2.29
			c-0.31-5.36-0.33-9.859-0.45-12.99c-0.04-3.14-0.06-4.939-0.06-4.939s0,0.029,0.01,0.08c0.07,0.379,0.36,2.08,0.82,4.789
			c0.44,3.11,1.23,7.53,1.9,12.86c0.66,5.33,1.56,11.54,2.3,18.22c0.77,6.67,1.46,13.801,2.15,20.931
			C59.31,174.27,59.83,180.25,60.25,185.99z"/>
	</g>
	<g>
		<line fill="#FDFEFF" x1="56.809" y1="172.606" x2="87.721" y2="143.181"/>
		<polygon fill="#FFFFFF" points="54.752,170.447 87.721,143.181 58.866,174.766 		"/>
	</g>
	<g>
		<line fill="#FDFEFF" x1="55.395" y1="152.909" x2="74.167" y2="131.367"/>
		<polygon fill="#FFFFFF" points="53.896,151.604 74.167,131.367 56.895,154.216 		"/>
	</g>
	<g>
		<line fill="#FDFEFF" x1="54.953" y1="149.375" x2="34.912" y2="134.2"/>
		<polygon fill="#FFFFFF" points="53.752,150.96 34.912,134.2 56.152,147.79 		"/>
	</g>
	<g>
		<line fill="#FDFEFF" x1="53.469" y1="130.675" x2="62.407" y2="119.111"/>
		<polygon fill="#FFFFFF" points="52.682,130.064 62.407,119.111 54.256,131.284 		"/>
	</g>
	<g>
		<line fill="#FDFEFF" x1="56.63" y1="171.753" x2="23.61" y2="150.354"/>
		<polygon fill="#FFFFFF" points="55.008,174.257 23.61,150.354 58.252,169.245 		"/>
	</g>
	<g>
		<line fill="#FDFEFF" x1="53.181" y1="128.522" x2="43.05" y2="120.379"/>
		<polygon fill="#FFFFFF" points="52.557,129.299 43.05,120.379 53.806,127.745 		"/>
	</g>
	<g>
		<polygon fill="#FFCD34" points="99.349,126.022 50.042,98 49.654,41.29 98.576,12.607 147.876,40.633 148.25,97.337 		"/>
	</g>
	<g>
		<polygon fill="#4BB649" points="4.605,137.885 50.104,98.256 99.126,126.155 83.957,183.037 25.54,190.278 		"/>
	</g>
	<g>
		<path fill="none" d="M56,186.52l-7.06-77.399c-0.01-0.06-0.01-0.091-0.01-0.091"/>
		<path fill="#FFFFFF" d="M57.8,186.3l-1.17,0.141L56,186.52l-1.81,0.221c-0.66-6.021-1.26-12.33-1.87-18.65
			c-0.63-7.359-1.27-14.72-1.73-21.64c-0.51-6.91-0.77-13.38-1.1-18.92c-0.32-5.54-0.35-10.171-0.49-13.4
			c-0.04-3.25-0.07-5.101-0.07-5.101s0,0.031,0.01,0.091c0.07,0.39,0.36,2.14,0.83,4.94c0.46,3.199,1.26,7.77,1.95,13.27
			c0.17,1.37,0.35,2.81,0.54,4.29c0,0.01,0.01,0.01,0,0.02c0.58,4.44,1.24,9.33,1.8,14.49c0.8,6.89,1.5,14.24,2.22,21.601
			C56.82,174.01,57.36,180.29,57.8,186.3z"/>
	</g>
	<g>
		<line fill="#FDFEFF" x1="54.625" y1="172.957" x2="87.44" y2="140.289"/>
		<polygon fill="#FFFFFF" points="52.521,170.841 87.44,140.289 56.73,175.07 		"/>
	</g>
	<g>
		<line fill="#FDFEFF" x1="52.953" y1="150.118" x2="72.924" y2="127.193"/>
		<polygon fill="#FFFFFF" points="51.454,148.813 72.924,127.193 54.452,151.424 		"/>
	</g>
	<g>
		<line fill="#FDFEFF" x1="52.373" y1="148.22" x2="31.764" y2="132.611"/>
		<polygon fill="#FFFFFF" points="51.173,149.809 31.764,132.611 53.573,146.637 		"/>
	</g>
	<g>
		<line fill="#FDFEFF" x1="50.839" y1="127.795" x2="60.064" y2="115.863"/>
		<polygon fill="#FFFFFF" points="50.051,127.183 60.064,115.863 51.626,128.401 		"/>
	</g>
	<g>
		<line fill="#FDFEFF" x1="54.602" y1="171.558" x2="17.479" y2="145.547"/>
		<polygon fill="#FFFFFF" points="52.891,174.002 17.479,145.547 56.313,169.114 		"/>
	</g>
	<g>
		<line fill="#FDFEFF" x1="50.543" y1="126.701" x2="40.089" y2="118.293"/>
		<polygon fill="#FFFFFF" points="49.919,127.474 40.089,118.293 51.167,125.928 		"/>
	</g>
	<g>
		<path fill-rule="evenodd" clip-rule="evenodd" fill="#FDFEFF" d="M87.861,74.732c-3.89-6.564-2.043-14.147,4.367-17.947
			c6.479-3.839,14.265-2.021,18.075,4.218c3.954,6.473,1.946,14.583-4.541,18.341C99.187,83.159,91.702,81.241,87.861,74.732z"/>
		<path fill-rule="evenodd" clip-rule="evenodd" fill="#FDFEFF" d="M88.824,52.675c-1.615,0.971-3.445,0.593-4.406-0.917
			c-1.013-1.569-0.582-3.609,0.968-4.572c1.659-1.033,3.69-0.541,4.662,1.134C90.93,49.877,90.405,51.7,88.824,52.675z"/>
		<path fill-rule="evenodd" clip-rule="evenodd" fill="#FDFEFF" d="M118.162,70.786c-0.948-1.569-0.458-3.674,1.046-4.553
			c1.565-0.92,3.565-0.42,4.521,1.142c0.991,1.631,0.531,3.539-1.08,4.523C121.053,72.861,119.11,72.378,118.162,70.786z"/>
		<path fill-rule="evenodd" clip-rule="evenodd" fill="#FDFEFF" d="M78.913,67.818c0.937,1.636,0.398,3.613-1.207,4.514
			c-1.598,0.901-3.578,0.307-4.491-1.335c-0.874-1.586-0.354-3.482,1.2-4.402C76.023,65.65,77.997,66.175,78.913,67.818z"/>
		<path fill-rule="evenodd" clip-rule="evenodd" fill="#FDFEFF" d="M107.972,46.867c1.608-0.897,3.603-0.303,4.5,1.325
			c0.853,1.553,0.313,3.559-1.174,4.428c-1.651,0.971-3.62,0.373-4.577-1.395C105.863,49.637,106.41,47.741,107.972,46.867z"/>
		<path fill-rule="evenodd" clip-rule="evenodd" fill="#FDFEFF" d="M90.293,87.187c0.917,1.58,0.415,3.482-1.132,4.398
			c-1.63,0.968-3.597,0.471-4.528-1.143c-0.964-1.646-0.463-3.562,1.168-4.524C87.379,84.983,89.345,85.545,90.293,87.187z"/>
		<path fill-rule="evenodd" clip-rule="evenodd" fill="#FDFEFF" d="M106.9,90.362c-1.003-1.69-0.544-3.47,1.139-4.454
			c1.646-0.962,3.515-0.464,4.458,1.191c0.897,1.566,0.427,3.417-1.128,4.373C109.737,92.482,107.886,92.032,106.9,90.362z"/>
		<path fill-rule="evenodd" clip-rule="evenodd" fill="#FDFEFF" d="M75.811,82.557c0.792,1.355,0.326,3.22-0.987,3.943
			c-1.271,0.706-3.05,0.225-3.831-1.033c-0.822-1.359-0.372-3.053,1.062-3.87C73.448,80.797,75.001,81.2,75.811,82.557z"/>
		<path fill-rule="evenodd" clip-rule="evenodd" fill="#FDFEFF" d="M124.852,57.034c-1.391,0.685-3.007,0.152-3.723-1.228
			c-0.733-1.433-0.178-3.157,1.244-3.846c1.411-0.675,3.162-0.054,3.807,1.383C126.813,54.719,126.22,56.366,124.852,57.034z"/>
		<path fill-rule="evenodd" clip-rule="evenodd" fill="#FDFEFF" d="M126.177,82.157c0.839,1.39,0.474,2.966-0.87,3.792
			c-1.369,0.86-3.148,0.419-3.94-0.973c-0.739-1.309-0.272-3.068,1.01-3.829C123.698,80.378,125.373,80.819,126.177,82.157z"/>
		<path fill-rule="evenodd" clip-rule="evenodd" fill="#FDFEFF" d="M95.93,41.529c-0.817-1.453-0.444-2.909,0.962-3.748
			c1.383-0.827,3.112-0.354,3.893,1.072c0.707,1.33,0.213,3.084-1.092,3.8C98.35,43.383,96.71,42.889,95.93,41.529z"/>
		<path fill-rule="evenodd" clip-rule="evenodd" fill="#FDFEFF" d="M75.604,53.451c0.775,1.283,0.373,3.039-0.917,3.847
			c-1.341,0.85-2.938,0.49-3.796-0.87c-0.909-1.437-0.544-3.131,0.87-3.951C73.036,51.735,74.832,52.186,75.604,53.451z"/>
		<path fill-rule="evenodd" clip-rule="evenodd" fill="#FDFEFF" d="M101.104,97.004c0.792,1.412,0.385,3.003-0.981,3.784
			c-1.346,0.77-3.028,0.339-3.813-0.995c-0.808-1.386-0.338-3.185,1.041-3.939C98.704,95.133,100.331,95.628,101.104,97.004z"/>
		<path fill-rule="evenodd" clip-rule="evenodd" fill="#FDFEFF" d="M64.723,68.428c0.646,1.109,0.222,2.553-0.916,3.169
			c-1.085,0.595-2.445,0.223-3.071-0.838c-0.675-1.127-0.31-2.546,0.816-3.21C62.679,66.886,64.063,67.267,64.723,68.428z"/>
		<path fill-rule="evenodd" clip-rule="evenodd" fill="#FDFEFF" d="M118.19,36.964c0.679,1.181,0.302,2.502-0.871,3.163
			c-1.161,0.645-2.622,0.252-3.168-0.914c-0.557-1.224-0.313-2.308,0.841-3.073C116.06,35.442,117.568,35.85,118.19,36.964z"/>
		<path fill-rule="evenodd" clip-rule="evenodd" fill="#FDFEFF" d="M82.356,37.302c0.645,1.146,0.241,2.565-0.897,3.163
			c-1.07,0.567-2.444,0.16-3.066-0.89c-0.66-1.161-0.298-2.533,0.832-3.186C80.405,35.725,81.68,36.098,82.356,37.302z"/>
		<path fill-rule="evenodd" clip-rule="evenodd" fill="#FDFEFF" d="M115.244,98.227c1.088-0.648,2.55-0.276,3.194,0.882
			c0.664,1.211,0.408,2.27-0.734,3.063c-1.124,0.768-2.494,0.433-3.183-0.709C113.831,100.327,114.153,98.884,115.244,98.227z"/>
		<path fill-rule="evenodd" clip-rule="evenodd" fill="#FDFEFF" d="M136.273,67.708c0.687,1.089,0.354,2.565-0.723,3.221
			c-1.166,0.704-2.498,0.4-3.188-0.766c-0.697-1.211-0.428-2.271,0.656-3.079C134.04,66.327,135.605,66.667,136.273,67.708z"/>
		<path fill-rule="evenodd" clip-rule="evenodd" fill="#FDFEFF" d="M82.783,99.133c0.704,1.104,0.397,2.526-0.687,3.232
			c-1.092,0.701-2.58,0.386-3.217-0.762c-0.664-1.188-0.443-2.275,0.672-3.09C80.608,97.739,82.103,98.053,82.783,99.133z"/>
		<path fill-rule="evenodd" clip-rule="evenodd" fill="#FDFEFF" d="M98.987,31.806c-0.781-0.351-1.761-0.498-2.257-1.077
			c-0.723-0.834-0.361-1.872,0.575-2.435c0.932-0.567,2.027-0.42,2.439,0.621c0.276,0.692-0.046,1.647-0.101,2.485
			C99.421,31.539,99.208,31.666,98.987,31.806z"/>
		<path fill-rule="evenodd" clip-rule="evenodd" fill="#FDFEFF" d="M98.043,106.716c0.769,0.322,1.74,0.466,2.245,1.019
			c0.718,0.8,0.454,1.857-0.471,2.447c-0.943,0.606-2.078,0.52-2.54-0.582c-0.291-0.688,0.039-1.637,0.093-2.464
			C97.591,106.997,97.821,106.856,98.043,106.716z"/>
		<path fill-rule="evenodd" clip-rule="evenodd" fill="#FDFEFF" d="M130.808,89.352c0.384-0.743,0.594-1.687,1.18-2.168
			c0.883-0.714,1.88-0.295,2.41,0.637c0.57,0.968,0.284,2.037-0.723,2.402c-0.699,0.272-1.641-0.09-2.471-0.172
			C131.075,89.819,130.932,89.581,130.808,89.352z"/>
		<path fill-rule="evenodd" clip-rule="evenodd" fill="#FDFEFF" d="M63.126,48.433c1.282-0.71,2.323-0.446,2.611,0.559
			c0.202,0.7-0.388,1.645-0.626,2.471c-0.835-0.249-1.938-0.257-2.432-0.816C61.98,49.855,62.34,48.86,63.126,48.433z"/>
		<path fill-rule="evenodd" clip-rule="evenodd" fill="#FDFEFF" d="M66.125,87.967c0.433,1.52,0.163,2.398-0.816,2.893
			c-0.949,0.48-1.928,0.268-2.424-0.762c-0.458-0.964-0.3-2.029,0.785-2.357C64.4,87.502,65.302,87.868,66.125,87.967z"/>
		<path fill-rule="evenodd" clip-rule="evenodd" fill="#FDFEFF" d="M133.604,50.662c-1.297,0.711-2.065,0.419-2.623-0.59
			c-0.589-1.052-0.201-2.082,0.728-2.365c0.675-0.21,1.919,0.178,2.384,0.734C134.719,49.222,134.413,50.258,133.604,50.662z"/>
	</g>
	<g>
		<polygon fill="#B72325" points="202.12,128.08 202.11,128.1 190.19,128.1 148.26,103.83 103.9,129.73 89.94,182.26 86.72,182.68 
			83.7,183.08 83.53,183.04 98.75,125.78 98.79,125.79 98.78,125.78 148.21,96.92 148.22,96.94 148.24,96.91 		"/>
	</g>
	<path fill="#010101" d="M150.246,140.075v-0.817c0.739-0.191,1.274-0.362,1.609-0.504c0.332-0.148,0.5-0.287,0.5-0.436v-7.669
		c0-0.629-0.039-1.138-0.107-1.53c-0.074-0.396-0.188-0.704-0.339-0.94c-0.154-0.233-0.354-0.388-0.595-0.474
		c-0.238-0.088-0.524-0.132-0.849-0.132c-0.676,0-1.43,0.305-2.255,0.905c-0.826,0.605-1.673,1.503-2.543,2.692v7.147
		c0,0.156,0.187,0.319,0.559,0.483c0.373,0.162,0.894,0.316,1.562,0.456v0.817h-6.997v-0.817c0.677-0.171,1.199-0.328,1.562-0.464
		c0.362-0.14,0.545-0.298,0.545-0.476v-18.048c0-0.435-0.021-0.769-0.055-1.011c-0.034-0.24-0.121-0.427-0.26-0.559
		c-0.139-0.133-0.35-0.23-0.629-0.287c-0.283-0.056-0.671-0.117-1.162-0.177v-0.767c0.483-0.082,0.913-0.168,1.298-0.245
		c0.385-0.087,0.747-0.172,1.077-0.272c0.333-0.098,0.653-0.202,0.956-0.315c0.302-0.113,0.619-0.245,0.944-0.4l0.602,0.552v12.262
		c0.489-0.599,1.01-1.127,1.55-1.594c0.544-0.466,1.084-0.859,1.616-1.177c0.532-0.313,1.049-0.556,1.547-0.723
		c0.497-0.163,0.943-0.245,1.345-0.245c0.442,0,0.865,0.069,1.276,0.205c0.408,0.142,0.769,0.354,1.085,0.641
		c0.311,0.29,0.563,0.652,0.755,1.097c0.189,0.45,0.283,0.986,0.283,1.608v9.455c0,0.075,0.034,0.144,0.109,0.21
		c0.069,0.071,0.189,0.138,0.351,0.21c0.166,0.069,0.382,0.146,0.654,0.236c0.271,0.092,0.61,0.185,1.007,0.283v0.817H150.246z"/>
	<path fill="#010101" d="M171.281,131.541c-0.181,0.204-0.453,0.407-0.814,0.608c-0.358,0.199-0.701,0.365-1.03,0.497h-7.812
		c0.011,0.777,0.121,1.517,0.321,2.207c0.206,0.691,0.494,1.299,0.863,1.806c0.369,0.512,0.819,0.92,1.343,1.226
		c0.528,0.304,1.128,0.45,1.795,0.45c0.316,0,0.626-0.017,0.929-0.059c0.304-0.042,0.629-0.132,0.979-0.269
		c0.345-0.139,0.737-0.34,1.165-0.608c0.431-0.269,0.94-0.628,1.522-1.076c0.137,0.068,0.264,0.192,0.385,0.369
		c0.124,0.175,0.21,0.302,0.263,0.385c-0.698,0.736-1.313,1.331-1.844,1.786c-0.537,0.451-1.042,0.799-1.514,1.048
		c-0.479,0.252-0.954,0.421-1.418,0.502c-0.467,0.082-0.976,0.125-1.528,0.125c-0.822,0-1.6-0.174-2.331-0.519
		c-0.735-0.34-1.376-0.825-1.931-1.452c-0.555-0.626-0.995-1.379-1.32-2.258c-0.332-0.886-0.494-1.867-0.494-2.954
		c0-0.686,0.075-1.36,0.221-2.016c0.152-0.659,0.366-1.271,0.649-1.848c0.28-0.572,0.626-1.104,1.038-1.596
		c0.408-0.493,0.883-0.92,1.414-1.293c0.245-0.171,0.516-0.34,0.815-0.49c0.295-0.156,0.607-0.291,0.928-0.411
		c0.324-0.117,0.653-0.211,0.995-0.28c0.336-0.074,0.661-0.109,0.966-0.109c0.664,0,1.267,0.087,1.799,0.262
		c0.532,0.174,1.002,0.414,1.406,0.713c0.408,0.304,0.751,0.656,1.034,1.07c0.279,0.411,0.509,0.846,0.69,1.305
		c0.181,0.467,0.308,0.939,0.393,1.434C171.244,130.589,171.281,131.068,171.281,131.541z M165.362,127.003
		c-0.513,0-0.977,0.103-1.391,0.298c-0.415,0.203-0.778,0.483-1.083,0.849c-0.307,0.365-0.564,0.799-0.761,1.313
		c-0.199,0.514-0.342,1.08-0.425,1.694h6.092c0.232,0,0.392-0.039,0.466-0.117c0.077-0.079,0.117-0.223,0.117-0.435
		c0-0.289-0.04-0.637-0.124-1.049c-0.082-0.41-0.234-0.806-0.452-1.181c-0.22-0.382-0.528-0.704-0.916-0.972
		C166.496,127.138,165.986,127.003,165.362,127.003z"/>
	<text transform="matrix(1 0 0 1 100.4253 180.458)" fill="#010101" font-family="'GentiumBookBasic'" font-size="53.7242">Promistery</text>
	<polygon fill-rule="evenodd" clip-rule="evenodd" points="140.54,121.8 140.54,124.1 134.9,124.1 134.9,140.41 131.98,140.41 
		131.98,124.12 126.3,124.12 126.3,121.84 131.95,121.84 131.95,116.939 134.88,116.939 134.88,121.8 	"/>
	<circle fill-rule="evenodd" clip-rule="evenodd" fill="#FDFEFF" cx="98.259" cy="29.741" r="2.137"/>
	<circle fill-rule="evenodd" clip-rule="evenodd" fill="#FDFEFF" cx="64.259" cy="49.908" r="2.137"/>
	<circle fill-rule="evenodd" clip-rule="evenodd" fill="#FDFEFF" cx="64.592" cy="89.241" r="2.137"/>
	<circle fill-rule="evenodd" clip-rule="evenodd" fill="#FDFEFF" cx="132.592" cy="49.241" r="2.137"/>
	<circle fill-rule="evenodd" clip-rule="evenodd" fill="#FDFEFF" cx="132.925" cy="88.741" r="2.137"/>
	<circle fill-rule="evenodd" clip-rule="evenodd" fill="#FDFEFF" cx="98.759" cy="108.575" r="2.137"/>
</g>
</svg>
