<?xml version="1.0" encoding="utf-8"?>
<!-- Generator: Adobe Illustrator 16.0.0, SVG Export Plug-In . SVG Version: 6.00 Build 0)  -->
<!DOCTYPE svg PUBLIC "-//W3C//DTD SVG 1.1//EN" "http://www.w3.org/Graphics/SVG/1.1/DTD/svg11.dtd">
<svg version="1.1" id="Layer_1" xmlns="http://www.w3.org/2000/svg" xmlns:xlink="http://www.w3.org/1999/xlink" x="0px" y="0px"
	 width="360px" height="270px" viewBox="0 0 360 270" enable-background="new 0 0 360 270" xml:space="preserve">
<g>
	<text transform="matrix(1 0 0 1 0.8765 242.5889)" fill="#010101" font-family="'GentiumBookBasic'" font-size="76.3706">Promistery</text>
	<text transform="matrix(1 0 0 1 12.6519 179.8408)" fill="#010101" font-family="'GentiumBookBasic'" font-size="39.035">the</text>
	<g>
		<polygon fill="#F8BC2C" points="169.797,119.512 118.711,90.479 118.315,31.719 169,2.002 220.072,31.039 220.469,89.791 		"/>
	</g>
	<g>
		<polygon fill="#149F49" points="71.637,131.802 118.777,90.743 169.573,119.649 153.854,178.584 93.329,186.088 		"/>
	</g>
	<g>
		<path fill="none" d="M117.564,101.905c0,0,0,0.034,0,0.093v0.013"/>
	</g>
	<g>
		<path fill-rule="evenodd" clip-rule="evenodd" fill="#FDFEFF" d="M157.896,66.368c-4.029-6.799-2.114-14.658,4.525-18.594
			c6.717-3.978,14.779-2.095,18.729,4.369c4.095,6.708,2.017,15.113-4.706,19.005C169.634,75.099,161.879,73.114,157.896,66.368z"/>
		<path fill-rule="evenodd" clip-rule="evenodd" fill="#FDFEFF" d="M158.896,43.52c-1.674,1.005-3.576,0.609-4.565-0.955
			c-1.051-1.624-0.6-3.736,1.001-4.737c1.721-1.068,3.827-0.558,4.831,1.175C161.078,40.618,160.535,42.506,158.896,43.52z"/>
		<path fill-rule="evenodd" clip-rule="evenodd" fill="#FDFEFF" d="M189.29,62.282c-0.98-1.628-0.471-3.809,1.087-4.721
			c1.62-0.952,3.689-0.433,4.68,1.186c1.028,1.689,0.558,3.667-1.114,4.687C192.286,64.43,190.273,63.93,189.29,62.282z"/>
		<path fill-rule="evenodd" clip-rule="evenodd" fill="#FDFEFF" d="M148.625,59.204c0.972,1.698,0.415,3.743-1.25,4.68
			c-1.652,0.932-3.705,0.316-4.648-1.385c-0.907-1.643-0.372-3.608,1.239-4.562C145.635,56.96,147.679,57.5,148.625,59.204z"/>
		<path fill-rule="evenodd" clip-rule="evenodd" fill="#FDFEFF" d="M178.733,37.498c1.666-0.929,3.735-0.313,4.667,1.374
			c0.881,1.61,0.319,3.686-1.222,4.586c-1.712,1.005-3.752,0.389-4.738-1.442C176.546,40.368,177.113,38.405,178.733,37.498z"/>
		<path fill-rule="evenodd" clip-rule="evenodd" fill="#FDFEFF" d="M160.418,79.272c0.947,1.64,0.432,3.61-1.172,4.559
			c-1.689,1.002-3.726,0.488-4.694-1.185c-0.998-1.707-0.477-3.69,1.215-4.689C157.396,76.988,159.435,77.573,160.418,79.272z"/>
		<path fill-rule="evenodd" clip-rule="evenodd" fill="#FDFEFF" d="M177.624,82.563c-1.04-1.75-0.567-3.597,1.179-4.616
			c1.707-0.996,3.646-0.48,4.625,1.235c0.928,1.621,0.438,3.541-1.169,4.532C180.565,84.76,178.644,84.293,177.624,82.563z"/>
		<path fill-rule="evenodd" clip-rule="evenodd" fill="#FDFEFF" d="M145.416,74.474c0.817,1.407,0.333,3.339-1.023,4.087
			c-1.321,0.732-3.162,0.233-3.969-1.072c-0.854-1.406-0.39-3.162,1.095-4.007C142.961,72.653,144.573,73.069,145.416,74.474z"/>
		<path fill-rule="evenodd" clip-rule="evenodd" fill="#FDFEFF" d="M196.22,48.031c-1.438,0.711-3.112,0.157-3.854-1.272
			c-0.754-1.484-0.187-3.271,1.288-3.985c1.466-0.698,3.277-0.055,3.946,1.435C198.253,45.632,197.636,47.339,196.22,48.031z"/>
		<path fill-rule="evenodd" clip-rule="evenodd" fill="#FDFEFF" d="M197.595,74.062c0.875,1.437,0.495,3.074-0.9,3.929
			c-1.421,0.894-3.255,0.434-4.087-1.008c-0.759-1.356-0.275-3.179,1.055-3.964C195.024,72.217,196.763,72.676,197.595,74.062z"/>
		<path fill-rule="evenodd" clip-rule="evenodd" fill="#FDFEFF" d="M166.26,31.969c-0.848-1.504-0.458-3.015,0.995-3.885
			c1.431-0.859,3.221-0.367,4.031,1.113c0.737,1.375,0.224,3.195-1.126,3.936C168.763,33.89,167.068,33.376,166.26,31.969z"/>
		<path fill-rule="evenodd" clip-rule="evenodd" fill="#FDFEFF" d="M145.197,44.321c0.805,1.329,0.39,3.148-0.948,3.983
			c-1.393,0.883-3.046,0.511-3.935-0.9c-0.938-1.489-0.56-3.245,0.902-4.095C142.536,42.541,144.397,43.007,145.197,44.321z"/>
		<path fill-rule="evenodd" clip-rule="evenodd" fill="#FDFEFF" d="M171.622,89.443c0.818,1.461,0.394,3.115-1.016,3.923
			c-1.396,0.797-3.142,0.352-3.954-1.031c-0.84-1.438-0.351-3.3,1.078-4.082C169.13,87.506,170.816,88.021,171.622,89.443z"/>
		<path fill-rule="evenodd" clip-rule="evenodd" fill="#FDFEFF" d="M133.924,59.839c0.672,1.149,0.229,2.643-0.945,3.284
			c-1.126,0.614-2.536,0.228-3.188-0.871c-0.696-1.169-0.317-2.639,0.849-3.325C131.809,58.238,133.24,58.633,133.924,59.839z"/>
		<path fill-rule="evenodd" clip-rule="evenodd" fill="#FDFEFF" d="M189.319,27.238c0.711,1.225,0.311,2.594-0.899,3.275
			c-1.202,0.669-2.719,0.262-3.285-0.946c-0.578-1.265-0.326-2.389,0.876-3.183C187.111,25.661,188.682,26.084,189.319,27.238z"/>
		<path fill-rule="evenodd" clip-rule="evenodd" fill="#FDFEFF" d="M152.193,27.589c0.666,1.187,0.25,2.654-0.928,3.276
			c-1.11,0.588-2.535,0.162-3.18-0.924c-0.68-1.201-0.307-2.622,0.867-3.297C150.17,25.955,151.495,26.339,152.193,27.589z"/>
		<path fill-rule="evenodd" clip-rule="evenodd" fill="#FDFEFF" d="M186.267,90.71c1.129-0.67,2.646-0.283,3.313,0.918
			c0.687,1.254,0.421,2.35-0.761,3.171c-1.164,0.797-2.58,0.448-3.295-0.734C184.804,92.888,185.139,91.391,186.267,90.71z"/>
		<path fill-rule="evenodd" clip-rule="evenodd" fill="#FDFEFF" d="M208.058,59.091c0.712,1.13,0.368,2.659-0.75,3.336
			c-1.207,0.73-2.588,0.416-3.299-0.793c-0.724-1.253-0.444-2.352,0.677-3.189C205.744,57.658,207.364,58.013,208.058,59.091z"/>
		<path fill-rule="evenodd" clip-rule="evenodd" fill="#FDFEFF" d="M152.636,91.651c0.731,1.143,0.411,2.615-0.713,3.349
			c-1.129,0.726-2.672,0.398-3.329-0.79c-0.687-1.231-0.464-2.359,0.695-3.205C150.381,90.206,151.933,90.531,152.636,91.651z"/>
		<path fill-rule="evenodd" clip-rule="evenodd" fill="#FDFEFF" d="M169.421,21.893c-0.808-0.362-1.821-0.516-2.336-1.115
			c-0.746-0.866-0.374-1.939,0.6-2.524c0.965-0.587,2.098-0.433,2.527,0.645c0.284,0.715-0.052,1.706-0.105,2.574
			C169.875,21.616,169.656,21.748,169.421,21.893z"/>
		<path fill-rule="evenodd" clip-rule="evenodd" fill="#FDFEFF" d="M168.447,99.506c0.796,0.334,1.808,0.486,2.325,1.057
			c0.749,0.831,0.471,1.924-0.486,2.536c-0.978,0.628-2.154,0.539-2.637-0.602c-0.296-0.715,0.046-1.696,0.1-2.555
			C167.977,99.798,168.219,99.652,168.447,99.506z"/>
		<path fill-rule="evenodd" clip-rule="evenodd" fill="#FDFEFF" d="M202.39,81.516c0.401-0.768,0.625-1.748,1.229-2.247
			c0.913-0.741,1.944-0.307,2.497,0.659c0.587,1.004,0.292,2.112-0.749,2.49c-0.726,0.285-1.702-0.093-2.563-0.178
			C202.67,82,202.524,81.754,202.39,81.516z"/>
		<path fill-rule="evenodd" clip-rule="evenodd" fill="#FDFEFF" d="M132.269,39.123c1.329-0.739,2.409-0.464,2.711,0.579
			c0.204,0.722-0.408,1.704-0.654,2.556c-0.866-0.254-2.01-0.264-2.518-0.842C131.086,40.594,131.458,39.564,132.269,39.123z"/>
		<path fill-rule="evenodd" clip-rule="evenodd" fill="#FDFEFF" d="M135.375,80.081c0.449,1.577,0.172,2.484-0.842,2.999
			c-0.984,0.497-2,0.276-2.511-0.791c-0.477-0.999-0.312-2.101,0.808-2.442C133.59,79.601,134.521,79.979,135.375,80.081z"/>
		<path fill-rule="evenodd" clip-rule="evenodd" fill="#FDFEFF" d="M205.292,41.432c-1.346,0.734-2.142,0.432-2.72-0.615
			c-0.609-1.088-0.206-2.154,0.757-2.45c0.697-0.215,1.988,0.186,2.469,0.763C206.443,39.938,206.13,41.014,205.292,41.432z"/>
	</g>
	<circle fill-rule="evenodd" clip-rule="evenodd" fill="#FDFEFF" cx="133.788" cy="81.403" r="2.215"/>
	<path fill-rule="evenodd" clip-rule="evenodd" fill="#FDFEFF" d="M206.802,80.882c0,1.229-0.99,2.217-2.218,2.217
		c-1.219,0-2.209-0.989-2.209-2.217c0-1.22,0.99-2.212,2.209-2.212C205.812,78.669,206.802,79.662,206.802,80.882z"/>
	<path fill-rule="evenodd" clip-rule="evenodd" fill="#FDFEFF" d="M171.401,101.433c0,1.226-0.989,2.215-2.213,2.215
		c-1.228,0-2.211-0.989-2.211-2.215c0-1.224,0.983-2.213,2.211-2.213C170.412,99.219,171.401,100.209,171.401,101.433z"/>
	<g>
		<polygon fill="#F9F9FA" points="283.619,177.676 283.461,177.725 280.558,177.352 277.468,176.967 263.803,126.678 
			221.135,102.074 220.944,102.186 220.944,102.172 178.649,126.746 165.155,177.092 162.075,177.5 159.171,177.875 
			159.014,177.824 173.704,122.961 173.755,122.961 221.071,95.442 221.068,95.476 221.109,95.442 221.128,95.456 268.682,122.864 
			268.709,122.864 		"/>
	</g>
	<path fill="#C12526" d="M264.006,125.311h-0.021L220.413,99.29V99.25l-0.059,0.039V99.25l-43.228,26.343h-0.062l-13.216,51.838
		h5.331l104.298-0.229h4.179L264.006,125.311z"/>
	<g>
		<g>
			<polygon fill="#BA2025" points="288.063,178.152 287.895,178.199 284.759,177.807 281.408,177.395 266.541,123.086 
				220.384,96.594 220.175,96.715 220.175,96.698 174.525,123.345 160.056,177.77 156.731,178.217 153.588,178.629 153.416,178.576 
				169.177,119.263 169.231,119.263 220.294,89.429 220.294,89.463 220.341,89.429 220.36,89.443 271.803,118.957 271.838,118.957 
							"/>
		</g>
	</g>
	<path fill="none" stroke="#FDFDFE" stroke-width="1.7875" stroke-miterlimit="10" d="M232.065,121.621c0,0.068,0,0.136-0.015,0.206
		H208.64c-0.013-0.069-0.013-0.138-0.013-0.206c0-6.483,5.243-11.731,11.728-11.731C226.82,109.889,232.065,115.138,232.065,121.621
		z"/>
	<g>
		<g>
			<path fill="#FFFFFF" d="M122.325,182.863c0,0-0.186-1.318-0.513-3.625c-0.163-1.152-0.361-2.553-0.588-4.16
				c-0.204-1.627-0.435-3.463-0.687-5.467c-0.124-1.002-0.252-2.047-0.385-3.127c-0.104-1.086-0.211-2.207-0.322-3.361
				c-0.209-2.307-0.482-4.729-0.589-7.26c-0.271-4.994-0.561-10.321-0.851-15.648c-0.163-2.644-0.245-5.355-0.349-7.985
				c0.001-2.629,0.002-5.216,0.003-7.719c0.009-4.995-0.029-9.647-0.066-13.646c-0.008-0.999-0.016-1.956-0.023-2.866
				c0.032-0.913,0.062-1.779,0.091-2.593c0.057-1.625,0.107-3.042,0.148-4.209c0.083-2.33,0.129-3.661,0.129-3.661
				s0.071,1.329,0.196,3.654c0.062,1.16,0.138,2.569,0.224,4.185c0.043,0.807,0.089,1.666,0.138,2.57
				c0.088,0.906,0.181,1.858,0.277,2.851c0.391,3.97,0.843,8.614,1.276,13.584c0.22,2.479,0.446,5.041,0.677,7.643
				c0.334,2.588,0.644,5.183,1.043,7.828c0.758,5.26,1.516,10.522,2.227,15.454c0.32,2.439,0.8,4.781,1.202,7.004
				c0.207,1.111,0.408,2.191,0.602,3.236c0.224,1.039,0.439,2.045,0.646,3.01c0.418,1.93,0.802,3.697,1.143,5.266
				c0.369,1.58,0.69,2.957,0.955,4.092c0.53,2.27,0.833,3.564,0.833,3.564L122.325,182.863z"/>
		</g>
		<g>
			<path fill="#FFFFFF" d="M123.146,167.152c0,0,0.723-0.268,1.989-0.736c0.604-0.232,1.338-0.518,2.179-0.842
				c0.828-0.352,1.792-0.723,2.793-1.188c1.02-0.443,2.09-0.969,3.221-1.535c0.553-0.301,1.122-0.607,1.703-0.922
				c0.565-0.338,1.142-0.684,1.729-1.033c0.568-0.379,1.146-0.762,1.73-1.152c0.56-0.42,1.126-0.848,1.698-1.277
				c0.539-0.465,1.109-0.914,1.641-1.404c0.513-0.508,1.073-0.984,1.56-1.527c2.021-2.107,3.736-4.537,5.064-7.004
				c0.317-0.627,0.646-1.23,0.943-1.849c0.293-0.629,0.58-1.244,0.859-1.842c0.543-1.193,1.048-2.326,1.438-3.395
				c0.211-0.531,0.39-1.046,0.54-1.542c0.165-0.494,0.31-0.966,0.413-1.417c0.252-0.896,0.378-1.696,0.497-2.357
				c0.116-0.662,0.137-1.19,0.185-1.549c0.038-0.359,0.058-0.552,0.058-0.552s0.008,0.192,0.023,0.554
				c0.004,0.36,0.06,0.894,0.041,1.571c-0.022,0.678-0.032,1.508-0.154,2.452c-0.038,0.477-0.115,0.977-0.209,1.503
				c-0.08,0.53-0.185,1.084-0.321,1.654c-0.24,1.151-0.584,2.373-0.958,3.659c-0.191,0.637-0.387,1.291-0.587,1.961
				c-0.211,0.674-0.462,1.363-0.701,2.07c-1.016,2.799-2.478,5.699-4.365,8.35c-0.454,0.676-0.985,1.291-1.478,1.939
				c-0.51,0.631-1.064,1.219-1.594,1.826c-0.565,0.57-1.125,1.137-1.679,1.695c-0.584,0.527-1.162,1.045-1.73,1.557
				c-0.591,0.482-1.171,0.955-1.74,1.42c-0.586,0.438-1.16,0.865-1.718,1.281c-1.135,0.795-2.22,1.539-3.241,2.174
				c-1.014,0.662-1.963,1.195-2.801,1.705c-0.852,0.48-1.594,0.898-2.205,1.244c-1.185,0.646-1.862,1.016-1.862,1.016
				L123.146,167.152z"/>
		</g>
		<g>
			<path fill="#FFFFFF" d="M119.127,145.881c0,0,0.537-0.266,1.477-0.73c0.454-0.232,1.084-0.515,1.773-0.837
				c0.676-0.306,1.438-0.65,2.271-1.026c0.802-0.366,1.67-0.763,2.589-1.183c0.898-0.426,1.832-0.888,2.754-1.405
				c0.48-0.243,0.923-0.533,1.383-0.819c0.461-0.285,0.935-0.57,1.362-0.909c0.42-0.32,0.935-0.669,1.295-0.975l1.347-1.186
				c0.477-0.395,0.834-0.796,1.229-1.196c0.382-0.407,0.799-0.783,1.158-1.217c0.696-0.882,1.465-1.714,2.018-2.641
				c0.293-0.453,0.606-0.891,0.873-1.339c0.24-0.465,0.474-0.919,0.702-1.36c0.511-0.872,0.755-1.787,1.089-2.604
				c0.075-0.207,0.159-0.408,0.223-0.608c0.049-0.205,0.097-0.404,0.144-0.599c0.094-0.392,0.183-0.764,0.267-1.113
				c0.202-0.699,0.248-1.327,0.302-1.844c0.111-1.041,0.175-1.636,0.175-1.636s0.029,0.599,0.081,1.647
				c0.027,0.528,0.08,1.173-0.013,1.906c-0.029,0.37-0.061,0.763-0.094,1.177c-0.017,0.208-0.034,0.422-0.052,0.641
				c-0.033,0.216-0.085,0.434-0.129,0.658c-0.208,0.889-0.324,1.901-0.708,2.888c-0.168,0.504-0.341,1.022-0.518,1.553
				c-0.207,0.518-0.46,1.027-0.698,1.561c-0.443,1.088-1.106,2.088-1.715,3.161c-0.315,0.529-0.709,1.025-1.068,1.547
				c-0.369,0.512-0.74,1.061-1.126,1.495l-1.147,1.381c-0.471,0.546-0.894,0.929-1.344,1.398c-0.434,0.465-0.906,0.864-1.371,1.265
				c-0.464,0.401-0.922,0.811-1.396,1.154c-0.935,0.736-1.858,1.387-2.739,1.987c-0.875,0.598-1.712,1.138-2.466,1.632
				c-0.739,0.484-1.417,0.93-2.018,1.322c-0.58,0.391-1.07,0.705-1.506,1.023c-0.856,0.604-1.346,0.949-1.346,0.949L119.127,145.881
				z"/>
		</g>
		<g>
			<path fill="#FFFFFF" d="M121.384,152.189c0,0-2.265-0.758-5.663-1.895c-0.858-0.299-1.786-0.613-2.776-0.998
				c-0.985-0.354-2.028-0.807-3.097-1.262c-1.065-0.512-2.166-1.02-3.238-1.687l-0.809-0.479l-0.781-0.554
				c-0.521-0.367-1.043-0.73-1.514-1.174c-0.992-0.812-1.85-1.771-2.646-2.723c-0.363-0.503-0.722-1.001-1.078-1.493
				c-0.327-0.507-0.601-1.035-0.893-1.536c-0.304-0.495-0.535-1.013-0.752-1.522c-0.22-0.504-0.436-0.998-0.646-1.479
				c-0.33-0.992-0.672-1.911-0.923-2.776c-0.224-0.87-0.43-1.668-0.612-2.375c-0.167-0.708-0.264-1.336-0.369-1.846
				c-0.195-1.021-0.306-1.604-0.306-1.604s0.201,0.559,0.553,1.536c0.182,0.486,0.374,1.084,0.646,1.75
				c0.285,0.658,0.607,1.401,0.958,2.211c0.374,0.797,0.843,1.625,1.298,2.51c0.268,0.418,0.542,0.848,0.823,1.286
				c0.275,0.44,0.562,0.883,0.912,1.288c0.338,0.412,0.656,0.849,1.018,1.252c0.38,0.382,0.764,0.769,1.152,1.158
				c0.827,0.716,1.676,1.412,2.626,1.962c0.446,0.312,0.946,0.548,1.436,0.788l0.727,0.362l0.763,0.301
				c0.992,0.422,2.046,0.716,3.044,1.018c1.034,0.256,2.017,0.514,2.996,0.698c0.958,0.208,1.895,0.369,2.753,0.524
				c3.495,0.584,5.825,0.975,5.825,0.975L121.384,152.189z"/>
		</g>
		<g>
			<path fill="#FFFFFF" d="M123.987,173.799c0,0-0.71-0.197-1.952-0.543c-1.196-0.332-3.012-0.771-5.234-1.336
				c-2.219-0.572-4.896-1.281-7.68-2.426c-1.39-0.563-2.798-1.254-4.15-2.076c-0.694-0.395-1.312-0.854-2.007-1.316
				c-0.612-0.436-1.214-0.836-1.853-1.34c-1.276-0.951-2.413-1.979-3.517-3.037c-1.079-1.078-2.085-2.186-2.972-3.324
				c-0.892-1.133-1.68-2.279-2.356-3.404s-1.266-2.213-1.737-3.25c-0.25-0.51-0.467-1.01-0.659-1.49
				c-0.201-0.477-0.386-0.93-0.535-1.365c-0.327-0.857-0.56-1.623-0.753-2.252c-0.199-0.626-0.311-1.132-0.407-1.469
				c-0.09-0.338-0.138-0.519-0.138-0.519s0.07,0.174,0.2,0.5c0.137,0.323,0.307,0.808,0.579,1.402
				c0.267,0.598,0.587,1.322,1.009,2.123c0.197,0.408,0.432,0.83,0.684,1.27c0.242,0.445,0.513,0.902,0.814,1.369
				c0.577,0.945,1.273,1.924,2.048,2.918c0.775,0.994,1.655,1.99,2.622,2.953c0.962,0.969,2.03,1.889,3.151,2.766
				c1.133,0.852,2.335,1.695,3.557,2.391c0.582,0.361,1.274,0.711,1.924,1.064c0.599,0.271,1.262,0.564,1.908,0.781
				c1.293,0.469,2.6,0.814,3.894,1.059c2.579,0.502,5.081,0.662,7.288,0.783c2.21,0.113,4.096,0.189,5.481,0.289
				c1.335,0.1,2.099,0.156,2.099,0.156L123.987,173.799z"/>
		</g>
		<g>
			<path fill="#FFFFFF" d="M118.598,130.393c0,0-0.272-0.146-0.748-0.403c-0.227-0.115-0.557-0.317-0.912-0.527
				c-0.368-0.208-0.742-0.462-1.149-0.737c-0.817-0.55-1.722-1.254-2.632-2.066c-0.449-0.415-0.91-0.842-1.341-1.318
				c-0.451-0.45-0.85-0.973-1.265-1.466c-0.377-0.534-0.774-1.041-1.087-1.603c-0.347-0.533-0.606-1.112-0.87-1.652
				c-0.215-0.568-0.453-1.101-0.574-1.642c-0.143-0.534-0.258-1.038-0.293-1.517c-0.078-0.47-0.08-0.906-0.066-1.291
				c-0.007-0.383,0.012-0.713,0.067-0.983c0.08-0.536,0.125-0.842,0.125-0.842s0.01,0.308,0.029,0.848
				c-0.006,0.268,0.034,0.59,0.108,0.955c0.053,0.366,0.129,0.772,0.283,1.2c0.112,0.436,0.307,0.882,0.525,1.344
				c0.196,0.468,0.509,0.918,0.789,1.388c0.333,0.447,0.65,0.916,1.053,1.338c0.365,0.446,0.813,0.839,1.227,1.248
				c0.457,0.375,0.885,0.769,1.365,1.098c0.457,0.351,0.938,0.655,1.4,0.948c0.938,0.57,1.843,1.042,2.641,1.388
				c0.399,0.175,0.763,0.335,1.076,0.442c0.321,0.117,0.57,0.219,0.844,0.302c0.515,0.167,0.809,0.263,0.809,0.263L118.598,130.393z
				"/>
		</g>
		<g>
			<path fill="#FFFFFF" d="M119.18,126.363c0,0,0.298-0.02,0.818-0.055c0.305-0.006,0.465-0.068,0.732-0.108
				c0.243-0.019,0.581-0.131,0.948-0.248c0.374-0.09,0.752-0.304,1.176-0.471c0.404-0.215,0.846-0.435,1.275-0.718
				c0.433-0.28,0.878-0.582,1.302-0.936c0.448-0.326,0.841-0.732,1.27-1.108c0.385-0.415,0.807-0.808,1.155-1.252
				c0.375-0.425,0.705-0.874,1.02-1.316c0.318-0.439,0.58-0.894,0.842-1.321c0.219-0.444,0.479-0.853,0.632-1.261
				c0.169-0.403,0.341-0.773,0.435-1.117c0.102-0.342,0.222-0.639,0.259-0.894c0.105-0.51,0.165-0.801,0.165-0.801
				s-0.004,0.299-0.013,0.823c0.011,0.267-0.052,0.579-0.09,0.946c-0.03,0.371-0.13,0.773-0.227,1.221
				c-0.081,0.454-0.261,0.912-0.405,1.422c-0.185,0.489-0.37,1.018-0.614,1.539c-0.241,0.524-0.5,1.064-0.81,1.588
				c-0.283,0.543-0.647,1.045-0.982,1.575c-0.381,0.493-0.732,1.019-1.156,1.476c-0.397,0.481-0.833,0.919-1.27,1.336
				c-0.433,0.42-0.902,0.784-1.345,1.135c-0.477,0.313-0.898,0.654-1.363,0.878c-0.447,0.244-0.854,0.473-1.316,0.628
				c-0.428,0.16-0.861,0.323-1.079,0.365c-0.505,0.131-0.794,0.206-0.794,0.206L119.18,126.363z"/>
		</g>
		<g>
			<path fill="#FFFFFF" d="M118.025,111.993c0,0-0.116-0.055-0.317-0.152c-0.101-0.049-0.224-0.107-0.364-0.175
				c-0.144-0.074-0.293-0.128-0.479-0.241c-0.369-0.282-0.868-0.551-1.214-0.965c-0.174-0.202-0.354-0.411-0.538-0.624
				c-0.148-0.236-0.279-0.486-0.415-0.726c-0.152-0.233-0.221-0.504-0.311-0.756c-0.084-0.254-0.18-0.496-0.207-0.749
				c-0.041-0.245-0.081-0.481-0.119-0.706c-0.007-0.226-0.015-0.439-0.021-0.636c-0.029-0.389,0.03-0.712,0.045-0.936
				c0.021-0.223,0.034-0.35,0.034-0.35s0.016,0.127,0.043,0.35c0.034,0.221,0.045,0.538,0.155,0.902
				c0.046,0.181,0.097,0.377,0.15,0.585c0.08,0.197,0.165,0.404,0.252,0.619c0.071,0.218,0.208,0.415,0.329,0.617
				c0.126,0.2,0.229,0.415,0.404,0.579c0.155,0.171,0.31,0.343,0.463,0.511c0.181,0.133,0.358,0.263,0.53,0.389
				c0.159,0.145,0.344,0.204,0.505,0.275c0.157,0.072,0.305,0.141,0.441,0.205c0.154,0.057,0.349,0.087,0.494,0.125
				c0.152,0.035,0.285,0.066,0.394,0.091c0.218,0.051,0.343,0.08,0.343,0.08L118.025,111.993z"/>
		</g>
		<g>
			<path fill="#FFFFFF" d="M118.072,110.348c0,0,0.49-0.18,1.224-0.451c0.173-0.072,0.409-0.129,0.557-0.234
				c0.172-0.096,0.354-0.198,0.541-0.302c0.184-0.114,0.411-0.192,0.575-0.359c0.181-0.151,0.365-0.305,0.55-0.458
				c0.205-0.144,0.31-0.36,0.473-0.538c0.158-0.182,0.3-0.374,0.394-0.585c0.1-0.208,0.234-0.397,0.298-0.605
				c0.073-0.206,0.142-0.401,0.206-0.581c0.202-0.753,0.337-1.256,0.337-1.256s-0.025,0.522-0.062,1.306
				c-0.025,0.199-0.053,0.414-0.082,0.642c-0.021,0.232-0.115,0.462-0.176,0.712c-0.055,0.256-0.163,0.499-0.292,0.741
				c-0.133,0.235-0.22,0.523-0.405,0.73c-0.172,0.223-0.345,0.445-0.515,0.665c-0.158,0.237-0.392,0.392-0.588,0.579
				c-0.207,0.179-0.408,0.352-0.598,0.516c-0.196,0.184-0.371,0.26-0.537,0.376c-0.66,0.42-1.099,0.701-1.099,0.701L118.072,110.348
				z"/>
		</g>
	</g>
	
		<line fill="none" stroke="#FFFFFF" stroke-width="1.8101" stroke-miterlimit="10" x1="195.929" y1="136.738" x2="219.686" y2="173.43"/>
	
		<line fill="none" stroke="#FFFFFF" stroke-width="1.8101" stroke-miterlimit="10" x1="245.145" y1="136.192" x2="221.385" y2="172.883"/>
	
		<rect x="195.929" y="136.738" fill="none" stroke="#FDFDFE" stroke-width="1.8101" stroke-miterlimit="10" width="23.757" height="36.692"/>
	
		<rect x="221.12" y="136.738" fill="none" stroke="#FDFDFE" stroke-width="1.8101" stroke-miterlimit="10" width="23.757" height="36.692"/>
	
		<line fill="none" stroke="#FFFFFF" stroke-width="1.8101" stroke-miterlimit="10" x1="195.795" y1="136.67" x2="219.549" y2="173.363"/>
	
		<line fill="none" stroke="#FFFFFF" stroke-width="1.8101" stroke-miterlimit="10" x1="245.005" y1="136.125" x2="221.246" y2="172.814"/>
	
		<rect x="195.795" y="136.67" fill="none" stroke="#FDFDFE" stroke-width="1.8101" stroke-miterlimit="10" width="23.754" height="36.693"/>
	
		<rect x="220.987" y="136.67" fill="none" stroke="#FDFDFE" stroke-width="1.8101" stroke-miterlimit="10" width="23.753" height="36.693"/>
	
		<line fill="none" stroke="#FDFDFE" stroke-width="2.7755" stroke-miterlimit="10" x1="209.432" y1="149.822" x2="231.152" y2="149.822"/>
	
		<line fill="none" stroke="#FFFFFF" stroke-width="1.8101" stroke-miterlimit="10" x1="219.549" y1="136.67" x2="195.795" y2="173.363"/>
	
		<line fill="none" stroke="#FFFFFF" stroke-width="1.8101" stroke-miterlimit="10" x1="221.246" y1="137.35" x2="245.005" y2="174.041"/>
	<polygon fill="#C12526" points="231.157,150.977 228.203,146.415 230.281,145.072 233.234,149.637 	"/>
	
		<rect x="206.582" y="147.304" transform="matrix(-0.5431 0.8397 -0.8397 -0.5431 447.6992 53.476)" fill="#C12526" width="5.437" height="2.472"/>
</g>
</svg>
